<?xml version="1.0" standalone="no"?><!DOCTYPE svg PUBLIC "-//W3C//DTD SVG 1.1//EN" "http://www.w3.org/Graphics/SVG/1.1/DTD/svg11.dtd"><svg t="1653012036294" class="icon" viewBox="0 0 1024 1024" version="1.1" xmlns="http://www.w3.org/2000/svg" p-id="3819" xmlns:xlink="http://www.w3.org/1999/xlink" width="200" height="200"><defs><style type="text/css">@font-face { font-family: feedback-iconfont; src: url("//at.alicdn.com/t/font_1031158_u69w8yhxdu.woff2?t=1630033759944") format("woff2"), url("//at.alicdn.com/t/font_1031158_u69w8yhxdu.woff?t=1630033759944") format("woff"), url("//at.alicdn.com/t/font_1031158_u69w8yhxdu.ttf?t=1630033759944") format("truetype"); }
</style></defs><path d="M1000.65998 0.00002h-94.819998a24 24 0 0 0-23.999999 25.14l8 165.519996A494.83999 494.83999 0 0 0 511.99999 16.00002C238.679995 16.00002 15.8 239.060015 16 512.38001 16.2 786.140005 238.199995 1008 511.99999 1008a494.19999 494.19999 0 0 0 332.359994-127.819997 24 24 0 0 0 0.959999-34.86l-67.999998-67.999998a24 24 0 0 0-32.76-1.1A351.999993 351.999993 0 1 1 804.199984 315.600014l-203.059996-9.74a24 24 0 0 0-25.139999 24v94.819998a24 24 0 0 0 23.999999 23.999999h400.659992a24 24 0 0 0 24-23.999999V24.00002a24 24 0 0 0-24-24z" p-id="3820"></path></svg>